<?xml version="1.0" encoding="utf-8"?>
<svg width="53" height="68" viewBox="0 0 53 68" fill="none" xmlns="http://www.w3.org/2000/svg">
<rect width="53" height="68" fill="#111111"/>
<path d="M0 1.35496C0 0.606635 0.608433 0 1.35897 0H6.20071C6.95126 0 7.55969 0.606636 7.55969 1.35496V13.6651C7.55969 14.4134 8.16812 15.0201 8.91866 15.0201H13.7604C14.5109 15.0201 15.1194 14.4134 15.1194 13.6651V1.35496C15.1194 0.606636 15.7278 0 16.4784 0H36.4395C37.19 0 37.7984 0.606636 37.7984 1.35496V21.1752C37.7984 21.9235 37.19 22.5301 36.4395 22.5301H31.5977C30.8472 22.5301 30.2388 21.9235 30.2388 21.1752V8.865C30.2388 8.11668 29.6303 7.51004 28.8798 7.51004H24.038C23.2875 7.51004 22.6791 8.11668 22.6791 8.865V21.1752C22.6791 21.9235 22.0706 22.5301 21.3201 22.5301H1.35897C0.608434 22.5301 0 21.9235 0 21.1752V1.35496Z" fill="#9EA0A1"/>
<path d="M45.4286 1.35496C45.4286 0.606634 46.037 0 46.7875 0H51.641C52.3916 0 53 0.606636 53 1.35496V36.4228C53 37.1711 52.3916 37.7778 51.641 37.7778H8.9304C8.17986 37.7778 7.57143 38.3844 7.57143 39.1327V59.0895C7.57143 59.8378 8.17986 60.4444 8.9304 60.4444H51.641C52.3916 60.4444 53 61.0511 53 61.7994V66.6451C53 67.3934 52.3916 68 51.641 68H1.35897C0.608434 68 0 67.3934 0 66.645V31.5772C0 30.8289 0.608433 30.2222 1.35897 30.2222H44.0696C44.8201 30.2222 45.4286 29.6156 45.4286 28.8673V1.35496Z" fill="#9EA0A1"/>
<path d="M15.2015 46.62C15.2015 45.8717 15.81 45.265 16.5605 45.265H51.641C52.3916 45.265 53 45.8717 53 46.62V51.4884C53 52.2367 52.3916 52.8434 51.641 52.8434H16.5605C15.81 52.8434 15.2015 52.2367 15.2015 51.4884V46.62Z" fill="#9EA0A1"/>
</svg>
